<svg id="eEpzO3LReZK1" xmlns="http://www.w3.org/2000/svg" xmlns:xlink="http://www.w3.org/1999/xlink" viewBox="0 0 500 500" shape-rendering="geometricPrecision" text-rendering="geometricPrecision" project-id="28738a459bb34e2fb162c2d9b3d0aa62" export-id="beb65c5664264d6f97557270507529ef" cached="false"><defs><linearGradient id="eEpzO3LReZK3-fill" x1="0.591041" y1="0" x2="0.732567" y2="0.87869" spreadMethod="pad" gradientUnits="objectBoundingBox" gradientTransform="translate(0 0)"><stop id="eEpzO3LReZK3-fill-0" offset="14%" stop-color="#b24400"/><stop id="eEpzO3LReZK3-fill-1" offset="100%" stop-color="#ffbf50"/></linearGradient><linearGradient id="eEpzO3LReZK3-stroke" x1="0.598596" y1="-0.000251" x2="0.737022" y2="0.863972" spreadMethod="pad" gradientUnits="objectBoundingBox" gradientTransform="translate(0 0)"><stop id="eEpzO3LReZK3-stroke-0" offset="14%" stop-color="#b24400"/><stop id="eEpzO3LReZK3-stroke-1" offset="100%" stop-color="#ffbf50"/></linearGradient><linearGradient id="eEpzO3LReZK4-fill" x1="-0.050567" y1="0.563413" x2="0.921977" y2="0.334618" spreadMethod="pad" gradientUnits="objectBoundingBox" gradientTransform="translate(0 0)"><stop id="eEpzO3LReZK4-fill-0" offset="0%" stop-color="#ffbf50"/><stop id="eEpzO3LReZK4-fill-1" offset="100%" stop-color="#b24400"/></linearGradient><linearGradient id="eEpzO3LReZK5-fill" x1="0.62941" y1="0.017037" x2="0.37059" y2="0.982963" spreadMethod="pad" gradientUnits="objectBoundingBox" gradientTransform="translate(0 0)"><stop id="eEpzO3LReZK5-fill-0" offset="40%" stop-color="#000"/><stop id="eEpzO3LReZK5-fill-1" offset="100%" stop-color="#747474"/></linearGradient><linearGradient id="eEpzO3LReZK5-stroke" x1="0.62941" y1="0.017037" x2="0.37059" y2="0.982963" spreadMethod="pad" gradientUnits="objectBoundingBox" gradientTransform="translate(0 0)"><stop id="eEpzO3LReZK5-stroke-0" offset="39.4142%" stop-color="#000"/><stop id="eEpzO3LReZK5-stroke-1" offset="100%" stop-color="#747474"/></linearGradient></defs><path d="M160.82736,276.163024L90.743002,213.328559c14.021177-61.292806,79.571137-132.536191,172.092653-131.918778c48.3451.322616,159.622516,0,159.622516,0s1.501759,105.225197,1.312937,152.792742C423.23548,369.136649,290.020217,434.891588,184.03182,392.076237l20.833793-60.32928c60.703055,20.105039,96.628662-8.519123,116.46179-29.628736c20.150514-21.447426,27.473348-58.886489,19.485683-88.789662-7.332302-27.449712-31.8096-45.473936-57.68467-51.568937-32.397476-6.194408-65.410629-.27031-92.071542,25.680854-27.787625,27.047882-29.239696,52.630532-30.229514,88.722548Z" transform="translate(.000001 0)" fill="url(#eEpzO3LReZK3-fill)" stroke="url(#eEpzO3LReZK3-stroke)" stroke-width="2.5"/><ellipse rx="50.648249" ry="48.70024" transform="matrix(.930622-.740023 0.771774 0.970551 252 247)" fill="url(#eEpzO3LReZK4-fill)"/><path d="M185.846728,327.283319L139.328324,459.606947h-55.624828v-225.141896l102.143232,92.818268Z" transform="translate(4.210147-1.548709)" fill="url(#eEpzO3LReZK5-fill)" stroke="url(#eEpzO3LReZK5-stroke)"/></svg>
